<svg xmlns="http://www.w3.org/2000/svg" xmlns:xlink="http://www.w3.org/1999/xlink" width="533" zoomAndPan="magnify" viewBox="0 0 399.75 180.749997" height="241" preserveAspectRatio="xMidYMid meet" version="1.0"><defs><g/><clipPath id="cb63ff044d"><rect x="0" width="326" y="0" height="88"/></clipPath><clipPath id="e837253fb2"><path d="M 122 1 L 173 1 L 173 62 L 122 62 Z M 122 1 " clip-rule="nonzero"/></clipPath><clipPath id="df363e1d81"><path d="M 102.832031 102.863281 L 134.527344 -0.222656 L 256.945312 37.414062 L 225.246094 140.503906 Z M 102.832031 102.863281 " clip-rule="nonzero"/></clipPath><clipPath id="77aeeb02c5"><path d="M 102.832031 102.863281 L 134.527344 -0.222656 L 256.945312 37.414062 L 225.246094 140.503906 Z M 102.832031 102.863281 " clip-rule="nonzero"/></clipPath><clipPath id="a28510f069"><path d="M 155 60 L 231 60 L 231 136 L 155 136 Z M 155 60 " clip-rule="nonzero"/></clipPath><clipPath id="114b1b6d78"><path d="M 102.832031 102.863281 L 134.527344 -0.222656 L 256.945312 37.414062 L 225.246094 140.503906 Z M 102.832031 102.863281 " clip-rule="nonzero"/></clipPath><clipPath id="42a1a06def"><path d="M 102.832031 102.863281 L 134.527344 -0.222656 L 256.945312 37.414062 L 225.246094 140.503906 Z M 102.832031 102.863281 " clip-rule="nonzero"/></clipPath><clipPath id="18f28008be"><path d="M 106.578125 81.863281 L 292.8125 81.863281 L 292.8125 103.359375 L 106.578125 103.359375 Z M 106.578125 81.863281 " clip-rule="nonzero"/></clipPath><clipPath id="d50bedd0f1"><path d="M 0.578125 0.863281 L 186.8125 0.863281 L 186.8125 22.359375 L 0.578125 22.359375 Z M 0.578125 0.863281 " clip-rule="nonzero"/></clipPath><clipPath id="0766cdecc7"><rect x="0" width="187" y="0" height="23"/></clipPath><clipPath id="bb34823124"><rect x="0" width="182" y="0" height="28"/></clipPath></defs><g transform="matrix(1, 0, 0, 1, 37, 46)"><g clip-path="url(#cb63ff044d)"><g fill="#ffffff" fill-opacity="1"><g transform="translate(0.964564, 69.491444)"><g><path d="M 25.4375 -59 C 25.664062 -59.050781 26.125 -59.09375 26.8125 -59.125 C 27.507812 -59.15625 28.40625 -59.140625 29.5 -59.078125 C 31.34375 -59.023438 33.097656 -58.910156 34.765625 -58.734375 C 36.441406 -58.554688 38.054688 -58.25 39.609375 -57.8125 C 41.171875 -57.382812 42.703125 -56.78125 44.203125 -56 C 45.703125 -55.226562 47.144531 -54.207031 48.53125 -52.9375 C 50.78125 -50.863281 52.394531 -48.382812 53.375 -45.5 C 53.488281 -45.207031 53.613281 -44.816406 53.75 -44.328125 C 53.894531 -43.835938 54.03125 -43.273438 54.15625 -42.640625 C 54.269531 -42.003906 54.367188 -41.484375 54.453125 -41.078125 C 54.535156 -40.679688 54.578125 -40.394531 54.578125 -40.21875 L 54.578125 -39.796875 L 37.625 -39.796875 L 37.453125 -40.734375 C 37.273438 -41.773438 36.867188 -42.671875 36.234375 -43.421875 C 35.609375 -44.171875 34.875 -44.804688 34.03125 -45.328125 C 33.195312 -45.847656 32.289062 -46.222656 31.3125 -46.453125 C 30.332031 -46.679688 29.351562 -46.796875 28.375 -46.796875 C 24.800781 -46.796875 22.957031 -45.09375 22.84375 -41.6875 C 22.84375 -40.363281 23.53125 -39.210938 24.90625 -38.234375 C 26.289062 -37.253906 28.769531 -36.242188 32.34375 -35.203125 C 35.175781 -34.285156 37.585938 -33.476562 39.578125 -32.78125 C 41.566406 -32.09375 43.222656 -31.429688 44.546875 -30.796875 C 45.816406 -30.160156 46.941406 -29.507812 47.921875 -28.84375 C 48.898438 -28.1875 49.765625 -27.507812 50.515625 -26.8125 C 52.421875 -24.96875 53.875 -22.804688 54.875 -20.328125 C 55.882812 -17.847656 56.332031 -15.28125 56.21875 -12.625 C 55.988281 -8.875 55.035156 -5.726562 53.359375 -3.1875 C 51.691406 -0.65625 49.5625 1.382812 46.96875 2.9375 C 44.375 4.5 41.472656 5.609375 38.265625 6.265625 C 35.066406 6.929688 31.828125 7.296875 28.546875 7.359375 C 25.609375 7.359375 22.835938 7.039062 20.234375 6.40625 C 17.640625 5.769531 15.289062 4.785156 13.1875 3.453125 C 11.082031 2.128906 9.265625 0.398438 7.734375 -1.734375 C 6.210938 -3.867188 5.046875 -6.429688 4.234375 -9.421875 C 3.660156 -11.328125 3.375 -12.742188 3.375 -13.671875 C 3.375 -13.898438 6.257812 -13.957031 12.03125 -13.84375 L 20.765625 -13.84375 L 20.84375 -12.625 C 21.1875 -10.957031 21.921875 -9.472656 23.046875 -8.171875 C 24.171875 -6.878906 25.484375 -6 26.984375 -5.53125 C 27.390625 -5.414062 27.851562 -5.328125 28.375 -5.265625 C 28.894531 -5.210938 29.472656 -5.1875 30.109375 -5.1875 C 31.546875 -5.1875 32.925781 -5.445312 34.25 -5.96875 C 35.582031 -6.488281 36.535156 -7.5 37.109375 -9 C 37.679688 -10.207031 37.738281 -11.585938 37.28125 -13.140625 C 36.820312 -14.816406 36.128906 -16 35.203125 -16.6875 C 34.109375 -17.550781 31.140625 -18.648438 26.296875 -19.984375 C 23.929688 -20.617188 21.835938 -21.253906 20.015625 -21.890625 C 18.203125 -22.523438 16.632812 -23.15625 15.3125 -23.78125 C 11.5 -25.632812 8.800781 -27.898438 7.21875 -30.578125 C 5.632812 -33.253906 4.929688 -36.785156 5.109375 -41.171875 C 5.222656 -43.941406 5.769531 -46.347656 6.75 -48.390625 C 7.726562 -50.441406 9.035156 -52.1875 10.671875 -53.625 C 12.316406 -55.070312 14.234375 -56.226562 16.421875 -57.09375 C 18.617188 -57.957031 20.988281 -58.53125 23.53125 -58.8125 C 23.875 -58.8125 24.25 -58.84375 24.65625 -58.90625 C 25.0625 -58.96875 25.320312 -59 25.4375 -59 Z M 25.4375 -59 "/></g></g></g><g fill="#ffffff" fill-opacity="1"><g transform="translate(60.379362, 69.491444)"><g><path d="M 5.109375 -58.21875 C 4.992188 -58.269531 5.050781 -58.328125 5.28125 -58.390625 C 5.625 -58.441406 6.90625 -58.46875 9.125 -58.46875 C 11.34375 -58.46875 14.53125 -58.46875 18.6875 -58.46875 C 28.082031 -58.46875 32.835938 -58.410156 32.953125 -58.296875 C 33.066406 -57.722656 33.671875 -54.867188 34.765625 -49.734375 C 34.765625 -49.679688 34.804688 -49.4375 34.890625 -49 C 34.984375 -48.570312 35.085938 -48.097656 35.203125 -47.578125 C 35.316406 -47.054688 35.414062 -46.550781 35.5 -46.0625 C 35.59375 -45.570312 35.664062 -45.210938 35.71875 -44.984375 C 36.644531 -40.828125 37.523438 -36.71875 38.359375 -32.65625 C 39.191406 -28.59375 40.015625 -24.484375 40.828125 -20.328125 C 41.054688 -18.765625 41.226562 -17.925781 41.34375 -17.8125 L 42.46875 -21.796875 C 42.695312 -22.660156 42.984375 -23.859375 43.328125 -25.390625 C 43.679688 -26.921875 44.085938 -28.78125 44.546875 -30.96875 C 45.003906 -32.46875 45.40625 -33.992188 45.75 -35.546875 C 46.101562 -37.109375 46.421875 -38.664062 46.703125 -40.21875 C 46.992188 -41.195312 47.253906 -42.238281 47.484375 -43.34375 C 47.710938 -44.207031 47.941406 -45.171875 48.171875 -46.234375 C 48.410156 -47.296875 48.613281 -48.320312 48.78125 -49.3125 C 50.164062 -54.957031 50.859375 -57.8125 50.859375 -57.875 L 51.03125 -58.46875 L 76.375 -58.46875 L 76.375 6.578125 L 59.515625 6.578125 L 59.515625 -45.84375 L 58.5625 -42.21875 C 56.832031 -35.40625 55.144531 -28.28125 53.5 -20.84375 C 51.851562 -13.40625 50.253906 -5.617188 48.703125 2.515625 L 47.921875 6.578125 L 32.953125 6.578125 L 32.4375 3.640625 C 31.6875 -0.742188 30.992188 -4.707031 30.359375 -8.25 C 29.722656 -11.800781 29.144531 -14.960938 28.625 -17.734375 C 27.644531 -22.984375 26.835938 -27.25 26.203125 -30.53125 C 25.578125 -33.820312 25.117188 -36.21875 24.828125 -37.71875 C 24.535156 -39.21875 24.300781 -40.410156 24.125 -41.296875 C 23.957031 -42.191406 23.84375 -42.785156 23.78125 -43.078125 C 23.78125 -43.304688 23.765625 -43.1875 23.734375 -42.71875 C 23.710938 -42.257812 23.703125 -41.082031 23.703125 -39.1875 C 23.753906 -38.257812 23.765625 -37.175781 23.734375 -35.9375 C 23.710938 -34.695312 23.703125 -33.328125 23.703125 -31.828125 C 23.640625 -30.328125 23.609375 -28.484375 23.609375 -26.296875 C 23.609375 -24.109375 23.609375 -21.597656 23.609375 -18.765625 L 23.609375 6.578125 L 6.40625 6.578125 L 6.40625 -25.265625 C 6.40625 -33.160156 6.40625 -39.414062 6.40625 -44.03125 C 6.40625 -48.644531 6.375 -51.644531 6.3125 -53.03125 C 6.195312 -55.789062 6.082031 -57.285156 5.96875 -57.515625 C 5.851562 -57.804688 5.566406 -58.039062 5.109375 -58.21875 Z M 5.109375 -58.21875 "/></g></g></g><g fill="#ffffff" fill-opacity="1"><g transform="translate(143.231428, 69.491444)"><g><path d="M 17.46875 -58.21875 C 17.300781 -58.269531 17.359375 -58.328125 17.640625 -58.390625 C 18.046875 -58.441406 19.269531 -58.46875 21.3125 -58.46875 C 23.363281 -58.46875 26.09375 -58.46875 29.5 -58.46875 L 42.46875 -58.46875 L 43.078125 -56.75 C 43.367188 -55.53125 43.890625 -53.710938 44.640625 -51.296875 C 45.097656 -49.796875 45.46875 -48.523438 45.75 -47.484375 C 46.039062 -46.453125 46.242188 -45.644531 46.359375 -45.0625 C 46.421875 -44.71875 46.851562 -43.21875 47.65625 -40.5625 C 48.46875 -37.96875 49.078125 -35.894531 49.484375 -34.34375 C 50.109375 -32.207031 50.707031 -30.128906 51.28125 -28.109375 C 51.863281 -26.085938 52.445312 -24.15625 53.03125 -22.3125 C 53.144531 -21.914062 53.285156 -21.410156 53.453125 -20.796875 C 53.628906 -20.191406 53.863281 -19.488281 54.15625 -18.6875 C 54.382812 -17.875 54.554688 -17.222656 54.671875 -16.734375 C 54.785156 -16.242188 54.867188 -15.914062 54.921875 -15.75 C 54.984375 -15.625 55.054688 -15.359375 55.140625 -14.953125 C 55.234375 -14.554688 55.394531 -14.039062 55.625 -13.40625 C 56.082031 -12.082031 56.335938 -11.160156 56.390625 -10.640625 C 56.453125 -10.460938 56.539062 -10.144531 56.65625 -9.6875 C 56.769531 -9.226562 56.898438 -8.753906 57.046875 -8.265625 C 57.191406 -7.773438 57.335938 -7.328125 57.484375 -6.921875 C 57.628906 -6.515625 57.703125 -6.253906 57.703125 -6.140625 C 57.753906 -6.085938 57.953125 -5.425781 58.296875 -4.15625 C 58.359375 -3.925781 58.488281 -3.445312 58.6875 -2.71875 C 58.894531 -2 59.113281 -1.28125 59.34375 -0.5625 C 59.570312 0.15625 59.769531 0.816406 59.9375 1.421875 C 60.113281 2.023438 60.234375 2.359375 60.296875 2.421875 C 60.296875 2.648438 60.378906 3.050781 60.546875 3.625 C 60.722656 4.207031 60.867188 4.582031 60.984375 4.75 C 61.035156 5.101562 61.085938 5.410156 61.140625 5.671875 C 61.203125 5.929688 61.265625 6.144531 61.328125 6.3125 C 61.390625 6.375 61.300781 6.429688 61.0625 6.484375 C 60.832031 6.546875 60.039062 6.578125 58.6875 6.578125 C 57.332031 6.578125 55.53125 6.578125 53.28125 6.578125 L 44.375 6.578125 L 44.03125 5.53125 C 43.914062 5.25 43.800781 4.890625 43.6875 4.453125 C 43.570312 4.023438 43.457031 3.519531 43.34375 2.9375 C 43.34375 2.820312 43.28125 2.5625 43.15625 2.15625 C 43.039062 1.757812 42.898438 1.242188 42.734375 0.609375 C 42.503906 -0.0234375 42.316406 -0.613281 42.171875 -1.15625 C 42.023438 -1.707031 41.894531 -2.21875 41.78125 -2.6875 L 40.734375 -6.828125 L 21.1875 -6.828125 L 21.015625 -6.234375 C 20.492188 -4.378906 20.015625 -2.613281 19.578125 -0.9375 C 19.148438 0.726562 18.765625 2.28125 18.421875 3.71875 L 17.640625 6.578125 L 8.828125 6.578125 C 6.515625 6.515625 4.679688 6.46875 3.328125 6.4375 C 1.972656 6.414062 1.296875 6.375 1.296875 6.3125 C 2.972656 1.0625 4.554688 -4.195312 6.046875 -9.46875 C 7.546875 -14.75 9.019531 -20.070312 10.46875 -25.4375 C 10.46875 -25.550781 10.582031 -25.992188 10.8125 -26.765625 C 11.039062 -27.546875 11.210938 -28.164062 11.328125 -28.625 C 11.617188 -29.488281 11.878906 -30.351562 12.109375 -31.21875 C 12.335938 -32.09375 12.566406 -32.988281 12.796875 -33.90625 C 13.023438 -34.71875 13.269531 -35.613281 13.53125 -36.59375 C 13.789062 -37.570312 14.097656 -38.640625 14.453125 -39.796875 C 14.503906 -39.960938 14.585938 -40.289062 14.703125 -40.78125 C 14.816406 -41.269531 14.945312 -41.785156 15.09375 -42.328125 C 15.238281 -42.878906 15.382812 -43.398438 15.53125 -43.890625 C 15.675781 -44.390625 15.75 -44.695312 15.75 -44.8125 C 15.863281 -45.09375 15.976562 -45.4375 16.09375 -45.84375 C 16.207031 -46.25 16.347656 -46.738281 16.515625 -47.3125 C 16.804688 -48.46875 16.984375 -49.132812 17.046875 -49.3125 C 17.160156 -49.59375 17.285156 -50.078125 17.421875 -50.765625 C 17.566406 -51.460938 17.785156 -52.332031 18.078125 -53.375 C 18.535156 -54.757812 18.765625 -55.625 18.765625 -55.96875 C 18.765625 -57 18.332031 -57.75 17.46875 -58.21875 Z M 32.09375 -39.609375 C 31.394531 -42.378906 30.988281 -43.765625 30.875 -43.765625 C 30.757812 -43.421875 30.503906 -42.328125 30.109375 -40.484375 C 29.984375 -40.023438 29.832031 -39.40625 29.65625 -38.625 C 29.488281 -37.84375 29.265625 -36.875 28.984375 -35.71875 C 28.859375 -35.375 28.648438 -34.566406 28.359375 -33.296875 C 28.078125 -32.035156 27.765625 -30.710938 27.421875 -29.328125 C 26.960938 -27.710938 26.5 -25.953125 26.03125 -24.046875 C 25.457031 -21.742188 25.171875 -20.503906 25.171875 -20.328125 C 25.171875 -20.210938 27.160156 -20.15625 31.140625 -20.15625 L 37.109375 -20.15625 L 36.9375 -21.015625 C 36.476562 -22.859375 35.84375 -25.320312 35.03125 -28.40625 C 34.226562 -31.5 33.25 -35.234375 32.09375 -39.609375 Z M 32.09375 -39.609375 "/></g></g></g><g fill="#ffffff" fill-opacity="1"><g transform="translate(205.932622, 69.491444)"><g><path d="M 24.21875 -31.046875 L 29.234375 -31.046875 C 30.679688 -31.046875 31.835938 -31.0625 32.703125 -31.09375 C 33.566406 -31.125 34.171875 -31.164062 34.515625 -31.21875 C 35.148438 -31.28125 35.957031 -31.539062 36.9375 -32 C 38.144531 -32.632812 39.035156 -33.585938 39.609375 -34.859375 C 40.421875 -36.648438 40.566406 -38.550781 40.046875 -40.5625 C 39.523438 -42.695312 38.34375 -44.113281 36.5 -44.8125 L 35.640625 -45.328125 L 29.921875 -45.40625 L 26.125 -45.40625 L 26.125 -58.46875 C 29.0625 -58.46875 31.4375 -58.46875 33.25 -58.46875 C 35.070312 -58.46875 36.5 -58.46875 37.53125 -58.46875 C 38.570312 -58.46875 39.320312 -58.453125 39.78125 -58.421875 C 40.25 -58.398438 40.566406 -58.390625 40.734375 -58.390625 C 45.640625 -57.984375 49.5625 -56.582031 52.5 -54.1875 C 55.445312 -51.800781 57.378906 -48.15625 58.296875 -43.25 C 59.046875 -38.519531 58.507812 -34.566406 56.6875 -31.390625 C 54.875 -28.222656 51.976562 -26.320312 48 -25.6875 L 46.796875 -25.609375 L 47.921875 -25.34375 C 51.722656 -24.769531 54.316406 -22.894531 55.703125 -19.71875 C 56.109375 -18.914062 56.441406 -17.734375 56.703125 -16.171875 C 56.960938 -14.617188 57.207031 -12.628906 57.4375 -10.203125 C 58.125 -1.210938 58.46875 4.175781 58.46875 5.96875 L 58.46875 6.578125 L 40.140625 6.578125 L 39.96875 5.796875 C 39.90625 5.453125 39.859375 4.859375 39.828125 4.015625 C 39.804688 3.179688 39.734375 2.128906 39.609375 0.859375 C 39.097656 -8.648438 38.410156 -14.328125 37.546875 -16.171875 C 37.253906 -16.753906 36.269531 -17.21875 34.59375 -17.5625 C 33.96875 -17.675781 32.035156 -17.789062 28.796875 -17.90625 L 24.21875 -17.90625 L 24.21875 6.578125 L 6.65625 6.578125 L 6.65625 -24.90625 C 6.71875 -32.519531 6.734375 -38.578125 6.703125 -43.078125 C 6.671875 -47.578125 6.65625 -50.601562 6.65625 -52.15625 C 6.539062 -55.101562 6.425781 -56.691406 6.3125 -56.921875 C 6.019531 -57.609375 5.5625 -58.097656 4.9375 -58.390625 C 5.28125 -58.390625 5.679688 -58.390625 6.140625 -58.390625 C 6.597656 -58.390625 7.128906 -58.398438 7.734375 -58.421875 C 8.347656 -58.453125 9.054688 -58.46875 9.859375 -58.46875 L 24.21875 -58.46875 Z M 24.21875 -31.046875 "/></g></g></g><g fill="#ffffff" fill-opacity="1"><g transform="translate(270.017579, 69.491444)"><g><path d="M 1.734375 -58.46875 L 52.671875 -58.46875 L 52.671875 -45.234375 L 1.734375 -45.234375 Z M 17.8125 -42.21875 L 17.390625 -42.640625 L 36.078125 -42.640625 L 36.078125 6.578125 L 18.59375 6.578125 L 18.59375 -16.953125 C 18.59375 -25.023438 18.59375 -31.09375 18.59375 -35.15625 C 18.59375 -39.226562 18.566406 -41.320312 18.515625 -41.4375 C 18.453125 -41.664062 18.21875 -41.925781 17.8125 -42.21875 Z M 17.8125 -42.21875 "/></g></g></g></g></g><g clip-path="url(#e837253fb2)"><g clip-path="url(#df363e1d81)"><g clip-path="url(#77aeeb02c5)"><path fill="#ffffff" d="M 135.535156 1.140625 C 133.953125 1.65625 135.304688 9.675781 135.464844 10.636719 C 136.300781 15.597656 137.804688 19.578125 139.074219 22.355469 C 137.429688 24.046875 135.78125 25.742188 134.132812 27.4375 C 133.925781 26.878906 133.714844 26.324219 133.507812 25.765625 C 133.097656 25.917969 132.507812 26.191406 131.910156 26.679688 C 131.199219 27.261719 130.78125 27.894531 130.554688 28.308594 C 130.789062 28.828125 131.027344 29.347656 131.265625 29.867188 C 128.480469 32.882812 125.695312 35.894531 122.914062 38.90625 C 122.90625 38.925781 122.898438 38.945312 122.894531 38.960938 C 122.957031 41.242188 123.449219 43.484375 123.789062 45.738281 C 127.816406 42.125 131.84375 38.511719 135.871094 34.902344 L 136.367188 35.902344 C 136.582031 35.71875 136.800781 35.539062 137.019531 35.355469 C 136.953125 34.921875 136.886719 34.484375 136.820312 34.046875 C 138.261719 32.753906 139.703125 31.464844 141.140625 30.171875 L 150.441406 51.835938 C 148.96875 53.472656 147.5 55.109375 146.027344 56.746094 C 146.125 58.410156 146.21875 60.078125 146.316406 61.742188 L 153.015625 55.917969 C 153.402344 56.550781 153.785156 57.1875 154.167969 57.820312 C 154.351562 57.757812 154.539062 57.695312 154.722656 57.632812 C 154.691406 56.929688 154.660156 56.222656 154.628906 55.519531 C 157.355469 56 160.085938 56.480469 162.816406 56.957031 C 162.0625 55.5 161.308594 54.039062 160.554688 52.578125 C 158.34375 51.945312 156.132812 51.308594 153.921875 50.675781 L 148.394531 27.824219 L 153.5625 28.414062 L 154.066406 29.402344 L 154.589844 29.425781 C 154.671875 29.226562 154.753906 29.03125 154.835938 28.832031 C 160.730469 29.753906 166.621094 30.675781 172.511719 31.597656 C 172.164062 30.820312 171.859375 30.199219 171.636719 29.78125 C 170.910156 28.414062 170.117188 27.078125 169.460938 25.675781 C 169.367188 25.476562 169.28125 25.277344 169.195312 25.078125 C 164.832031 23.976562 160.472656 22.875 156.113281 21.769531 C 155.988281 21.210938 155.863281 20.652344 155.738281 20.09375 C 155.328125 19.875 154.648438 19.582031 153.765625 19.488281 C 153.054688 19.410156 152.457031 19.484375 152.046875 19.570312 C 152.070312 20.15625 152.097656 20.742188 152.121094 21.324219 C 149.902344 20.898438 147.679688 20.46875 145.460938 20.042969 C 144.65625 16.75 143.230469 12.28125 140.542969 7.4375 C 139.414062 5.40625 136.8125 0.722656 135.535156 1.140625 Z M 135.535156 1.140625 " fill-opacity="1" fill-rule="nonzero"/></g></g></g><g clip-path="url(#a28510f069)"><g clip-path="url(#114b1b6d78)"><g clip-path="url(#42a1a06def)"><path fill="#ffffff" d="M 189.625 123.027344 C 196.179688 128.582031 205.015625 134.285156 213.765625 134.953125 C 217.695312 135.335938 222.019531 134.726562 225.160156 132.148438 C 228.246094 129.675781 229.820312 125.773438 230.125 121.917969 C 228.980469 126.726562 226.105469 131.140625 221.117188 132.445312 C 218.808594 133.074219 216.382812 132.984375 214.035156 132.613281 C 205.023438 131.292969 195.644531 124.070312 189.171875 117.894531 C 182.460938 111.457031 176.65625 104.101562 171.640625 96.269531 C 167.105469 89.167969 163.253906 81.660156 160.046875 73.855469 C 158.246094 69.496094 156.675781 65.035156 155.238281 60.542969 C 158.984375 83.964844 171.582031 107.527344 189.625 123.027344 Z M 189.625 123.027344 " fill-opacity="1" fill-rule="nonzero"/></g></g></g><g clip-path="url(#18f28008be)"><g transform="matrix(1, 0, 0, 1, 106, 81)"><g clip-path="url(#0766cdecc7)"><g clip-path="url(#d50bedd0f1)"><path fill="#000000" d="M 0.578125 0.863281 L 186.808594 0.863281 L 186.808594 22.359375 L 0.578125 22.359375 Z M 0.578125 0.863281 " fill-opacity="1" fill-rule="nonzero"/></g></g></g></g><g transform="matrix(1, 0, 0, 1, 123, 77)"><g clip-path="url(#bb34823124)"><g fill="#ffffff" fill-opacity="1"><g transform="translate(1.013004, 22.959818)"><g><path d="M 13.234375 -12.234375 L 8.484375 -12.234375 L 8.484375 0 L 5.453125 0 L 5.453125 -12.234375 L 0.734375 -12.234375 L 0.734375 -14.84375 L 13.234375 -14.84375 Z M 13.234375 -12.234375 "/></g></g></g><g fill="#ffffff" fill-opacity="1"><g transform="translate(27.685761, 22.959818)"><g><path d="M 10.734375 0 L 7.875 -3.828125 C 7.789062 -3.816406 7.695312 -3.8125 7.59375 -3.8125 C 7.5 -3.8125 7.40625 -3.8125 7.3125 -3.8125 L 4.546875 -3.8125 L 4.546875 0 L 1.53125 0 L 1.53125 -14.84375 L 8.09375 -14.84375 C 9.164062 -14.84375 10.070312 -14.695312 10.8125 -14.40625 C 11.5625 -14.113281 12.160156 -13.71875 12.609375 -13.21875 C 13.066406 -12.71875 13.394531 -12.144531 13.59375 -11.5 C 13.800781 -10.863281 13.90625 -10.195312 13.90625 -9.5 C 13.90625 -8.21875 13.644531 -7.15625 13.125 -6.3125 C 12.613281 -5.476562 11.867188 -4.847656 10.890625 -4.421875 L 14.34375 0 Z M 4.546875 -6.296875 L 7.203125 -6.296875 C 8.410156 -6.296875 9.300781 -6.570312 9.875 -7.125 C 10.445312 -7.6875 10.734375 -8.398438 10.734375 -9.265625 C 10.734375 -9.785156 10.632812 -10.269531 10.4375 -10.71875 C 10.25 -11.164062 9.925781 -11.53125 9.46875 -11.8125 C 9.007812 -12.09375 8.390625 -12.234375 7.609375 -12.234375 L 4.546875 -12.234375 Z M 4.546875 -6.296875 "/></g></g></g><g fill="#ffffff" fill-opacity="1"><g transform="translate(55.264465, 22.959818)"><g><path d="M 11.390625 -3.015625 L 4.765625 -3.015625 L 3.4375 0 L 0.25 0 L 7.328125 -14.84375 L 8.828125 -14.84375 L 15.921875 0 L 12.75 0 Z M 5.828125 -5.515625 L 10.328125 -5.515625 L 8.0625 -10.421875 Z M 5.828125 -5.515625 "/></g></g></g><g fill="#ffffff" fill-opacity="1"><g transform="translate(84.212628, 22.959818)"><g><path d="M 12.359375 -14.84375 L 15.65625 -14.84375 L 8.71875 0 L 7.328125 0 L 0.421875 -14.84375 L 3.6875 -14.84375 L 8.03125 -5.15625 Z M 12.359375 -14.84375 "/></g></g></g><g fill="#ffffff" fill-opacity="1"><g transform="translate(112.99224, 22.959818)"><g><path d="M 12.9375 -2.609375 L 12.9375 0 L 1.53125 0 L 1.53125 -14.84375 L 12.484375 -14.84375 L 12.484375 -12.234375 L 4.46875 -12.234375 L 4.46875 -8.46875 L 11.1875 -8.46875 L 11.1875 -5.9375 L 4.46875 -5.9375 L 4.46875 -2.609375 Z M 12.9375 -2.609375 "/></g></g></g><g fill="#ffffff" fill-opacity="1"><g transform="translate(139.580736, 22.959818)"><g><path d="M 12.1875 -2.53125 L 12.1875 0 L 1.53125 0 L 1.53125 -14.84375 L 4.546875 -14.84375 L 4.546875 -2.53125 Z M 12.1875 -2.53125 "/></g></g></g><g fill="#ffffff" fill-opacity="1"><g transform="translate(165.166616, 22.959818)"><g/></g></g></g></g></svg>